<?xml version="1.0" encoding="utf-8"?>
<!-- Generator: Adobe Illustrator 21.0.2, SVG Export Plug-In . SVG Version: 6.00 Build 0)  -->
<svg version="1.1" id="svg3377" xmlns:svg="http://www.w3.org/2000/svg"
	 xmlns="http://www.w3.org/2000/svg" xmlns:xlink="http://www.w3.org/1999/xlink" x="0px" y="0px" viewBox="0 0 856 124.1"
	 style="enable-background:new 0 0 856 124.1;" xml:space="preserve">
<g id="layer1" transform="translate(78.011895,-470.30263)">
	<path id="path68" d="M617.6,549.6h-0.1v8.2h1.5v-3.5h1.2c0.1,0.1,2.1,3.5,2.1,3.5h1.6c0,0-2.1-3.3-2.3-3.6c1.3-0.2,2-1,2-2.3
		c0-1.6-1-2.4-3-2.4H617.6L617.6,549.6z M620.4,550.8c1.1,0,1.6,0.3,1.6,1c0,1.1-0.8,1.2-1.8,1.2h-1.3v-2.2L620.4,550.8L620.4,550.8
		z M620.4,546.3c1.3,0,2.6,0.3,3.7,1c1.2,0.7,2.1,1.6,2.7,2.7c0.7,1.2,1,2.4,1,3.7c0,1.3-0.3,2.6-1,3.7c-0.7,1.2-1.6,2.1-2.7,2.7
		c-1.2,0.7-2.4,1-3.8,1c-1.4,0-2.6-0.3-3.8-1c-1.2-0.7-2.1-1.6-2.7-2.7c-0.7-1.2-1-2.4-1-3.8s0.3-2.6,1-3.8c0.7-1.2,1.6-2.1,2.7-2.7
		C617.8,546.6,619,546.3,620.4,546.3 M620.4,547.5c-1.7,0-3.2,0.6-4.4,1.8c-1.2,1.2-1.8,2.7-1.8,4.4c0,1.7,0.6,3.2,1.8,4.4
		c1.2,1.2,2.7,1.8,4.4,1.8c1.7,0,3.2-0.6,4.4-1.8s1.8-2.7,1.8-4.4c0-1.7-0.6-3.2-1.8-4.4C623.5,548.1,622.1,547.5,620.4,547.5
		 M751.3,549c10.9,12.9,22.6,31.3,26.7,43.9h-17.6c-3.8-9.9-13.3-24.3-21-32.1L751.3,549z M778,470.3V502
		c-0.1,0.1-47.6,47.6-47.6,47.6c-2.5-2.7-4.9-5.1-7.5-7.7c-26.9-26.5-54.6-42.1-62-34.8c-5.7,5.6,2.7,23.2,18.3,42.4l-6.5,6.5
		c-12-14.4-21.2-29-26.1-41.3c-3.7-9.6-6.2-21.5,0-27.6c5.5-5.5,16.7-5,31.5,1.6c15,6.7,32.1,18.8,47.9,33.7L778,470.3L778,470.3z
		 M700.9,547.4c2,1.3,5.5,4.5,8.4,7.4c2.7,2.7,6.1,6.2,7.6,8.4l-29.7,29.7h-31.7L700.9,547.4z M524.2,592.9
		c10.4,0.9,14.9,1.5,33.9,1.5c27.6,0,39.7-4,39.7-15c0-9.8-13.3-12.2-25.8-14c-10.3-1.5-16.3-1.5-16.3-5.7c0-4.2,10.6-4,17.5-4
		c3.6,0,11.9,0.5,17.4,1.5l5.8-9.5c-4.6-0.5-16.9-1.5-30.6-1.5c-24.7,0-39.8,3.5-39.8,13.3c0,10.4,13.2,11.8,26,13.8
		c10.4,1.6,16,1.5,16,5.6c0,4.6-9.1,4.8-18.3,4.8c-3.9,0-12-0.4-18.7-2L524.2,592.9L524.2,592.9z M-78,570.9c0,16.5,13.4,23,42.8,23
		c12.8,0,24.9-0.8,34.6-2.6v-20.9h-23.7V583c-2.9,0.3-5.1,0.5-8.5,0.5c-16.5,0-19.7-6-19.7-12.9c0-6.6,3.8-13.1,21.4-13.1
		c9.7,0,15.5,0.5,24.3,2l6.7-10.7c-15.2-1.8-26-2-34.8-2C-64.4,546.8-78,554.5-78,570.9 M386.6,558.6H419l6.7-10.8h-63.3v45h24.2
		v-13.1h26.3l6.8-10.7h-33.1L386.6,558.6L386.6,558.6z M47,571.1l14.8,21.8h26.1l-15.2-19.5c2.4-0.3,12.3-1,12.3-12.7
		c0-12.7-15.3-12.8-25.1-12.8H15.5v45h23.6l0-35.7h11c5.3,0,10.1,1,10.1,6.3C60.2,569.4,58.1,571.1,47,571.1 M489.2,570.3
		c0,10-5,13.6-16.5,13.6c-10.2,0-16.4-3.6-16.4-13.6c0-10,6.1-13.5,16.4-13.5C483.2,556.8,489.2,560.3,489.2,570.3 M515.2,570
		c0-14.5-13-23.5-42.3-23.5c-29.7,0-42.5,9-42.5,23.6c0,16.2,12.8,24.1,42.5,24.1C502.2,594.2,515.2,586.3,515.2,570 M294.8,558
		h10.9c10.8,0,17,2.7,17,12.3c0,8.9-6.1,12.3-17,12.3h-10.9L294.8,558L294.8,558z M271,547.8v45h37.1c27.1,0,39.6-4.8,39.6-22.6
		c0-17.8-12.6-22.4-39.7-22.4L271,547.8L271,547.8z M232.9,592.9L199,570v22.8h-14.1v-45h20.4l33.9,23v-23h14.1v45H232.9z
		 M168.4,547.8v26.4c0,7.1-1.7,10.1-5.3,13.2c-5.7,4.7-16.9,6.7-29.6,6.7c-12.8,0-23.5-2-29.2-6.7c-3.7-3.1-5.4-6.1-5.4-13.2v-26.4
		h23.9v24.8c0,8.6,3.8,11.3,11,11.3c7.2,0,11-2.7,11-11.3v-24.8L168.4,547.8L168.4,547.8z"/>
</g>
</svg>
