<svg xmlns="http://www.w3.org/2000/svg" viewBox="0 0 224.26 32.2"><defs><style>.cls-1{fill:#231f20;}</style></defs><title>Asset 1</title><g id="Layer_2" data-name="Layer 2"><g id="Layer_1-2" data-name="Layer 1"><ellipse cx="13.51" cy="8.24" rx="0.95" ry="0.94" transform="translate(-0.05 0.08) rotate(-0.32)"/><path class="cls-1" d="M3.45,21.73A11.17,11.17,0,0,1,.76,21.4a1,1,0,0,1,.48-1.94,9.46,9.46,0,0,0,2.26.27,8.77,8.77,0,0,0,8.75-7.57,1,1,0,1,1,2,.24A10.78,10.78,0,0,1,3.51,21.73Z"/><path class="cls-1" d="M41,14.21H38.27a1,1,0,0,1,0-2H41a1,1,0,0,1,0,2Z"/><path d="M17.59,12.85a1,1,0,0,1-1-1v-6H13.78a1,1,0,0,1,0-2h3.81a1,1,0,0,1,1,1v7A1,1,0,0,1,17.59,12.85Z"/><path class="cls-1" d="M12.6,32.12H9.86a4.55,4.55,0,0,1-4.69-4.39V24.18a1,1,0,0,1,2,0v3.55a2.56,2.56,0,0,0,2.69,2.39H12.6a1,1,0,0,1,0,2Z"/><path class="cls-1" d="M40.5,17.1v14a1,1,0,0,1-1,1H30a1,1,0,0,1-1-1V26.5H26.21v4.62a1,1,0,0,1-1,1H15.69a1,1,0,0,1-1-1v-9L13.6,23v3.29a1,1,0,0,1-2,0V22.55a1,1,0,0,1,.37-.78l3.09-2.5a1,1,0,0,1,1.06-.12,1,1,0,0,1,.57.9V30.12h2.76V25.5a1,1,0,0,1,2,0v4.62h2.76V25.5a1,1,0,0,1,1-1H30a1,1,0,0,1,1,1v4.62h2.76V25.5a1,1,0,0,1,2,0v4.62H38.5v-13a1,1,0,0,1,2,0Z"/><path class="cls-1" d="M40.49,8.59v.88a1,1,0,1,1-2,0V8.6c0-4.54-2.46-6.48-8.15-6.48H30a12.17,12.17,0,0,1,.44,3.24,12.48,12.48,0,0,1-12.61,12.3,1,1,0,0,1,0-2A10.47,10.47,0,0,0,28.48,5.36a9.87,9.87,0,0,0-.54-3.24H15.7c-6.3,0-8.54,4.42-8.54,8.21v6.21a1,1,0,0,1-2,0V10.33C5.16,5.25,8.42.12,15.7.12H30.34C37.14.12,40.46,2.89,40.49,8.59Z"/><path d="M61.5,32.09a1,1,0,0,1-1-1v-30a1,1,0,0,1,2,0v30A1,1,0,0,1,61.5,32.09Z"/><path d="M158.87,31.11a1,1,0,0,1-1,1H139.48a1,1,0,0,1-1-1V1.1a1,1,0,0,1,1-1h18.39a1,1,0,1,1,0,2H140.48v13h15a1,1,0,1,1,0,2h-15v13h17.39A1,1,0,0,1,158.87,31.11Z"/><path d="M101.36,32.09a1,1,0,0,1-1-1V4L87.24,20.4a1,1,0,0,1-.78.38h0a1,1,0,0,1-.79-.38L72.88,4V31.1a1,1,0,0,1-2,0v-30A1,1,0,0,1,72.67.49l13.8,17.67L100.57.47a1,1,0,0,1,1.78.62v30A1,1,0,0,1,101.36,32.09Z"/><path d="M111.2,32.09a1,1,0,0,1-1-1v-11a1,1,0,0,1,1-1h11.37a8.52,8.52,0,1,0,0-17H112.2V14.57a1,1,0,0,1-2,0V1.09a1,1,0,0,1,1-1h11.37a10.52,10.52,0,1,1,0,21H112.2v10A1,1,0,0,1,111.2,32.09Z"/><path d="M188.54,31.87a1,1,0,0,1-.62.22,1,1,0,0,1-.78-.38L178.63,21a10.91,10.91,0,0,1-1.29.08H167.25v10a1,1,0,0,1-2,0v-11a1,1,0,0,1,1-1h11.09a8.18,8.18,0,0,0,1.49-.13l.14,0a8.52,8.52,0,0,0-1.63-16.89H167.25V14.57a1,1,0,0,1-2,0V1.09a1,1,0,0,1,1-1h11.09a10.51,10.51,0,0,1,3.45,20.45l7.91,9.92A1,1,0,0,1,188.54,31.87Z"/><path d="M208.16,32.2a16.1,16.1,0,1,1,16.1-16.1A16.12,16.12,0,0,1,208.16,32.2Zm0-30.2a14.1,14.1,0,1,0,14.1,14.1A14.12,14.12,0,0,0,208.16,2Z"/></g></g></svg>