<svg id="Layer_1" data-name="Layer 1" xmlns="http://www.w3.org/2000/svg" viewBox="0 0 545.25 82"><defs><style>.cls-1{fill:#060000;}</style></defs><title>Artboard 1</title><path class="cls-1" d="M112.17,18.71H88.39V2.85h64.77V18.71H129.37V81h-17.2Z"/><path class="cls-1" d="M0,69.09,10.31,56.75c7.13,5.89,14.61,9.63,23.67,9.63,7.13,0,11.44-2.83,11.44-7.7,0-4.42-2.72-6.68-16-10.08-16-4.08-26.28-8.5-26.28-24.46C3.17,9.74,14.73.23,30.92.23A45.89,45.89,0,0,1,60.37,10.31L51.31,23.45c-7-4.87-13.93-7.82-20.61-7.82S20.5,18.69,20.5,22.77c0,5.21,3.4,6.91,17.1,10.42,16.09,4.19,25.14,10,25.14,24,0,15.74-12,24.58-29.11,24.58A50.46,50.46,0,0,1,0,69.09Z"/><path class="cls-1" d="M171.23,41c0-22.54,17.79-41,42.25-41s42,18.24,42,41c0,22.54-17.78,41-42.25,41S171.23,63.77,171.23,41Zm66,0c0-13.59-10-24.92-24-24.92S189.47,27.18,189.47,41c0,13.59,10,24.92,24,24.92S237.27,54.82,237.27,41Z"/><path class="cls-1" d="M282.67,1.36h17.44V36L332.27,1.36h21.07L321.06,35l33.75,45.64h-21L309.28,46.89l-9.17,9.51V80.64H282.67Z"/><path class="cls-1" d="M381.66,1.36h59.8V16.88H399V33h37.38V48.48H399V65.13h43V80.64H381.66Z"/><path class="cls-1" d="M472.2,1.36h30.92c24.92,0,42.14,17.1,42.14,39.64,0,22.31-17.22,39.64-42.14,39.64H472.2ZM503.11,64.9c14.27,0,23.9-9.63,23.9-23.9,0-14-9.63-23.9-23.9-23.9H489.64V64.9Z"/></svg>